<svg xmlns="http://www.w3.org/2000/svg" width="40" height="72" fill="none" viewBox="0 0 40 72">
    <path stroke="#6B7684" stroke-linecap="round" stroke-linejoin="round" stroke-width="1.6" d="M27.5 57L20 64.5 12.5 57"/>
    <path fill="#6B7684" d="M21.306 0h-3.069C11.897 0 6.93 5.167 6.93 11.764v16.47C6.93 34.833 11.897 40 18.237 40h3.069c6.486 0 11.763-5.278 11.763-11.765v-16.47C33.069 5.276 27.792 0 21.306 0zM19.88 6.165h.237c.37 0 .673.302.673.673v4.791c0 .371-.302.673-.673.673h-.237c-.372 0-.674-.302-.674-.673V6.838c0-.371.302-.673.674-.673zm11.65 22.07c0 5.639-4.587 10.227-10.225 10.227h-3.069c-5.478 0-9.769-4.493-9.769-10.227v-16.47c0-5.735 4.291-10.227 9.77-10.227h.983v3.19c-.898.28-1.552 1.12-1.552 2.11v4.791c0 .99.654 1.83 1.552 2.111v3.958c0 .425.344.77.769.77.425 0 .769-.345.769-.77v-3.952c.908-.276 1.57-1.12 1.57-2.117V6.838c0-.997-.662-1.84-1.57-2.116V1.538h.547c5.638 0 10.224 4.588 10.224 10.226v16.47z"/>
</svg>
